<svg width="194" height="51" viewBox="0 0 194 51" fill="none" xmlns="http://www.w3.org/2000/svg">
<g clip-path="url(#clip0)">
<path d="M71.9088 25.1121C71.8989 19.3533 68.7057 17.5361 65.6505 17.5288C62.5964 17.5361 59.4052 19.3533 59.3937 25.1121C59.4052 30.8721 62.5964 32.6888 65.6505 32.7003C68.7057 32.6888 71.8989 30.8721 71.9088 25.1121ZM72.4131 17.3664C74.2151 19.1143 75.3839 21.7116 75.3839 25.1121C75.3839 28.5169 74.2151 31.1159 72.4131 32.8616C70.6079 34.608 68.1781 35.4945 65.6505 35.4945C63.1271 35.4945 60.6932 34.608 58.8921 32.8616C57.088 31.1159 55.9229 28.5169 55.9229 25.1121C55.9229 21.7116 57.088 19.1143 58.8921 17.3664C60.6932 15.6231 63.1271 14.7293 65.6505 14.7293C68.1781 14.7293 70.6079 15.6231 72.4131 17.3664V17.3664ZM190.492 25.9231C189.04 25.7007 187.737 25.5949 186.593 25.5949C182.595 25.5987 180.556 26.8903 180.549 29.1419C180.553 31.2107 182.257 32.8293 185.94 32.8372C187.221 32.8372 188.735 32.6393 190.492 32.1872V25.9231ZM193.772 24.47V34.0689L193.712 34.0908C190.908 35.0987 188.191 35.6028 185.793 35.6028C183.312 35.6028 181.172 35.0637 179.648 33.9727C178.121 32.8851 177.217 31.2435 177.219 29.0793C177.223 24.3564 181.507 22.9779 185.952 22.9727C187.495 22.9727 189.06 23.134 190.492 23.3851C190.492 23.3569 190.492 23.3345 190.492 23.3017C190.489 21.5487 190.433 18.6143 187.456 17.8503C186.544 17.6121 185.639 17.5221 184.78 17.5221C181.869 17.5221 179.54 18.5621 179.537 18.5679L179.424 18.6173L179.057 15.9003L179.119 15.8716C179.128 15.8643 181.588 14.6897 185.057 14.6897C185.877 14.6897 186.755 14.7564 187.667 14.9179C192.351 15.756 193.783 19.2487 193.772 24.47V24.47ZM133.495 25.9231C132.04 25.7007 130.741 25.5949 129.595 25.5949C125.596 25.5987 123.559 26.8903 123.552 29.1419C123.557 31.2107 125.26 32.8293 128.945 32.8372C130.222 32.8372 131.737 32.6393 133.495 32.1872V25.9231ZM136.773 24.47C136.773 31.7861 136.773 34.0039 136.773 34.0039V34.0689L136.713 34.0908C133.912 35.0987 131.195 35.6028 128.801 35.6028C126.315 35.6028 124.177 35.0637 122.648 33.9727C121.125 32.8851 120.221 31.2435 120.223 29.0793C120.226 24.3564 124.51 22.9779 128.958 22.9727C130.496 22.9727 132.064 23.134 133.495 23.3851C133.495 23.3569 133.495 23.3304 133.495 23.2992C133.493 21.5487 133.433 18.6143 130.459 17.8503C129.546 17.6121 128.639 17.5221 127.782 17.5221C124.875 17.5221 122.546 18.5621 122.54 18.5679L122.425 18.6173L122.06 15.9003L122.12 15.8716C122.13 15.8643 124.592 14.6897 128.059 14.6872C128.881 14.6872 129.759 14.7564 130.67 14.9179C135.353 15.756 136.784 19.2487 136.773 24.47V24.47ZM160.4 15.2601H176.604V18.1716H170.144V34.9659H166.863V18.1716H160.4V15.2601ZM154.484 15.2601H157.765V34.9659H154.484V26.3653H144.06V34.9659H140.781V15.2601H144.06V23.4539H154.484V15.2601ZM113.585 15.2601H116.869V34.9659H113.585V18.1716H104.675V24.1069L104.674 24.1049C104.665 29.6793 104.011 35.2435 98.6828 35.6236L98.5979 35.6288L98.1593 33.1028L98.2364 33.0779C101.085 32.1783 101.395 28.9632 101.395 22.2039V15.2601H104.675H113.585V15.2601ZM92.3631 15.2601H95.6437V34.9659H92.3631V26.3653H81.9349V34.9659H78.6536V15.2601H81.9349V23.4539H92.3631V15.2601" fill="white"/>
<path fill-rule="evenodd" clip-rule="evenodd" d="M50.4146 25.16C50.4146 39.0816 39.1289 50.3673 25.2073 50.3673C11.2857 50.3673 0 39.0816 0 25.16C0 11.2384 11.2857 -0.0473328 25.2073 -0.0473328C39.1289 -0.0473328 50.4146 11.2384 50.4146 25.16ZM35.8856 25.16C35.8856 31.0574 31.1048 35.8382 25.2073 35.8382C19.3099 35.8382 14.5291 31.0574 14.5291 25.16C14.5291 19.2626 19.3099 14.4818 25.2073 14.4818C31.1048 14.4818 35.8856 19.2626 35.8856 25.16ZM37.3398 29.1211H40.1328V25.6519H40.3975L43.5854 29.1211H45.0664V21.0056H42.3984V24.4422H42.1497L38.8035 20.8586H37.3398V29.1211Z" fill="white"/>
</g>
<defs>
<clipPath id="clip0">
<rect width="193.773" height="50.32" fill="white"/>
</clipPath>
</defs>
</svg>
